<svg width="168" height="35" viewBox="0 0 168 35" fill="none" xmlns="http://www.w3.org/2000/svg">
<path d="M153.52 22.2291V30.4546C153.52 31.7538 153.226 32.7282 152.637 33.3778C152.047 34.0273 151.269 34.3521 150.303 34.3521C149.366 34.3521 148.603 34.0273 148.014 33.3778C147.44 32.7282 147.153 31.7538 147.153 30.4546V20.5976C147.153 19.0416 147.1 17.8331 146.994 16.972C146.889 16.111 146.602 15.4085 146.133 14.8647C145.665 14.3057 144.925 14.0263 143.913 14.0263C141.888 14.0263 140.551 14.7212 139.902 16.111C139.267 17.5008 138.95 19.4948 138.95 22.0932V30.4546C138.95 31.7387 138.655 32.7131 138.066 33.3778C137.492 34.0273 136.729 34.3521 135.778 34.3521C134.841 34.3521 134.071 34.0273 133.466 33.3778C132.877 32.7131 132.583 31.7387 132.583 30.4546V12.7573C132.583 11.5941 132.847 10.7104 133.376 10.1061C133.92 9.50184 134.63 9.19971 135.506 9.19971C136.352 9.19971 137.054 9.48673 137.613 10.0608C138.187 10.6197 138.474 11.3977 138.474 12.3947V12.9839C139.547 11.6998 140.695 10.7557 141.918 10.1514C143.142 9.54716 144.502 9.24503 145.997 9.24503C147.553 9.24503 148.89 9.55471 150.008 10.1741C151.126 10.7934 152.047 11.7301 152.773 12.9839C153.815 11.7149 154.933 10.7783 156.126 10.1741C157.32 9.55471 158.641 9.24503 160.092 9.24503C161.784 9.24503 163.241 9.57737 164.465 10.2421C165.689 10.9067 166.603 11.8585 167.207 13.0972C167.736 14.2151 168 15.975 168 18.3769V30.4546C168 31.7538 167.705 32.7282 167.116 33.3778C166.527 34.0273 165.749 34.3521 164.782 34.3521C163.846 34.3521 163.075 34.0273 162.471 33.3778C161.882 32.7131 161.587 31.7387 161.587 30.4546V20.0538C161.587 18.7244 161.527 17.6594 161.406 16.8587C161.3 16.0581 160.998 15.3858 160.5 14.842C160.001 14.2982 159.246 14.0263 158.234 14.0263C157.418 14.0263 156.64 14.268 155.9 14.7514C155.175 15.2348 154.608 15.8844 154.2 16.7001C153.747 17.7425 153.52 19.5855 153.52 22.2291Z" fill="#396F87"/>
<path d="M120.981 30.8627C119.485 32.0259 118.035 32.9021 116.63 33.4912C115.24 34.0653 113.677 34.3523 111.94 34.3523C110.353 34.3523 108.956 34.0426 107.748 33.4232C106.554 32.7888 105.633 31.9352 104.983 30.8627C104.333 29.7901 104.009 28.6269 104.009 27.3731C104.009 25.6811 104.545 24.2384 105.618 23.045C106.69 21.8516 108.163 21.051 110.036 20.6431C110.429 20.5524 111.403 20.3485 112.959 20.0313C114.515 19.714 115.845 19.427 116.947 19.1702C118.065 18.8983 119.274 18.5735 120.573 18.1958C120.497 16.5643 120.165 15.3709 119.576 14.6156C119.002 13.8451 117.801 13.4599 115.973 13.4599C114.402 13.4599 113.216 13.679 112.415 14.117C111.63 14.5551 110.95 15.2123 110.376 16.0885C109.817 16.9646 109.417 17.5462 109.175 17.8333C108.949 18.1052 108.45 18.2411 107.68 18.2411C106.985 18.2411 106.38 18.0221 105.867 17.584C105.368 17.1308 105.119 16.5568 105.119 15.8619C105.119 14.7742 105.504 13.7167 106.275 12.6895C107.045 11.6622 108.246 10.8163 109.878 10.1516C111.509 9.48689 113.541 9.15454 115.973 9.15454C118.692 9.15454 120.83 9.47933 122.386 10.1289C123.942 10.7634 125.037 11.7755 125.671 13.1653C126.321 14.5551 126.646 16.3981 126.646 18.6943C126.646 20.1446 126.638 21.3757 126.623 22.3879C126.623 23.4 126.616 24.5255 126.601 25.7642C126.601 26.9274 126.789 28.1435 127.167 29.4124C127.56 30.6663 127.756 31.4745 127.756 31.837C127.756 32.4715 127.454 33.0531 126.85 33.5818C126.261 34.0955 125.588 34.3523 124.833 34.3523C124.199 34.3523 123.572 34.0577 122.952 33.4685C122.333 32.8643 121.676 31.9957 120.981 30.8627ZM120.573 21.912C119.667 22.2444 118.345 22.5994 116.608 22.977C114.885 23.3396 113.692 23.6115 113.027 23.7928C112.363 23.959 111.728 24.2989 111.124 24.8125C110.52 25.311 110.217 26.0135 110.217 26.9199C110.217 27.8565 110.572 28.6571 111.282 29.3218C111.992 29.9714 112.922 30.2962 114.07 30.2962C115.293 30.2962 116.419 30.0318 117.446 29.5031C118.488 28.9592 119.251 28.2643 119.735 27.4184C120.294 26.4818 120.573 24.9409 120.573 22.7958V21.912Z" fill="#396F87"/>
<path d="M95.9191 31.5198L90.4581 22.5465L87.1044 25.7189V30.6361C87.1044 31.8295 86.7872 32.751 86.1527 33.4006C85.5333 34.0351 84.8158 34.3523 84 34.3523C83.0483 34.3523 82.3005 34.0351 81.7567 33.4006C81.2128 32.7661 80.9409 31.8295 80.9409 30.5908V4.21473C80.9409 2.84003 81.2053 1.79768 81.734 1.08767C82.2627 0.362557 83.0181 0 84 0C84.9517 0 85.707 0.324791 86.266 0.974373C86.8249 1.62396 87.1044 2.58322 87.1044 3.85217V18.853L94.061 11.5565C94.922 10.6501 95.5792 10.0308 96.0324 9.69841C96.4856 9.36607 97.037 9.19989 97.6865 9.19989C98.457 9.19989 99.099 9.44915 99.6126 9.94767C100.126 10.4311 100.383 11.0429 100.383 11.7831C100.383 12.6895 99.5446 13.898 97.8678 15.4087L94.5821 18.4224L100.927 28.3928C101.395 29.133 101.728 29.6995 101.924 30.0923C102.135 30.4699 102.241 30.8325 102.241 31.1799C102.241 32.1619 101.969 32.9398 101.425 33.5139C100.897 34.0728 100.194 34.3523 99.318 34.3523C98.5627 34.3523 97.9811 34.1484 97.5732 33.7405C97.1654 33.3326 96.614 32.5924 95.9191 31.5198Z" fill="#396F87"/>
<path d="M72.3536 25.9463L64.9702 33.3297L57.5868 25.9463C56.1265 24.486 55.1321 22.6255 54.7292 20.6C54.3263 18.5745 54.5331 16.4751 55.3234 14.5671C56.1137 12.6592 57.452 11.0284 59.1692 9.88106C60.8863 8.73373 62.9051 8.12134 64.9702 8.12134C67.0354 8.12134 69.0542 8.73373 70.7713 9.88106C72.4884 11.0284 73.8267 12.6592 74.617 14.5671C75.4073 16.4751 75.6141 18.5745 75.2113 20.6C74.8084 22.6255 73.8139 24.486 72.3536 25.9463ZM64.9702 23.2036C66.201 23.2036 67.3814 22.7147 68.2517 21.8444C69.122 20.9741 69.611 19.7937 69.611 18.5629C69.611 17.3321 69.122 16.1517 68.2517 15.2814C67.3814 14.4111 66.201 13.9222 64.9702 13.9222C63.7394 13.9222 62.559 14.4111 61.6887 15.2814C60.8184 16.1517 60.3295 17.3321 60.3295 18.5629C60.3295 19.7937 60.8184 20.9741 61.6887 21.8444C62.559 22.7147 63.7394 23.2036 64.9702 23.2036ZM64.9702 20.8833C64.3548 20.8833 63.7646 20.6388 63.3295 20.2036C62.8943 19.7685 62.6499 19.1783 62.6499 18.5629C62.6499 17.9475 62.8943 17.3573 63.3295 16.9222C63.7646 16.487 64.3548 16.2425 64.9702 16.2425C65.5856 16.2425 66.1758 16.487 66.611 16.9222C67.0461 17.3573 67.2906 17.9475 67.2906 18.5629C67.2906 19.1783 67.0461 19.7685 66.611 20.2036C66.1758 20.6388 65.5856 20.8833 64.9702 20.8833Z" fill="#F89422"/>
<path d="M40.0173 25.4242V30.5906C40.0173 31.8444 39.7227 32.7886 39.1336 33.4231C38.5444 34.0424 37.7966 34.3521 36.8903 34.3521C35.999 34.3521 35.2663 34.0349 34.6923 33.4004C34.1182 32.7659 33.8312 31.8293 33.8312 30.5906V13.3691C33.8312 10.5895 34.8358 9.19971 36.8449 9.19971C37.8722 9.19971 38.6124 9.5245 39.0656 10.1741C39.5188 10.8237 39.7681 11.7829 39.8134 13.0519C40.5536 11.7829 41.3089 10.8237 42.0794 10.1741C42.8649 9.5245 43.9073 9.19971 45.2064 9.19971C46.5056 9.19971 47.767 9.5245 48.9906 10.1741C50.2142 10.8237 50.8261 11.6847 50.8261 12.7573C50.8261 13.5126 50.5617 14.1396 50.033 14.6381C49.5193 15.1215 48.9604 15.3632 48.3561 15.3632C48.1295 15.3632 47.5781 15.2272 46.702 14.9553C45.8409 14.6683 45.078 14.5248 44.4133 14.5248C43.5069 14.5248 42.7667 14.7665 42.1927 15.2499C41.6186 15.7182 41.173 16.4206 40.8557 17.3572C40.5385 18.2939 40.3194 19.4117 40.1986 20.7109C40.0777 21.995 40.0173 23.566 40.0173 25.4242Z" fill="#396F87"/>
<path d="M6.72997 4.07877V15.7259L19.9407 1.94875C20.5751 1.28406 21.1114 0.793094 21.5495 0.475857C22.0027 0.158619 22.5994 0 23.3396 0C24.3065 0 25.0844 0.287025 25.6736 0.861074C26.2779 1.42002 26.58 2.10736 26.58 2.92312C26.58 3.90505 26.0739 4.87942 25.0618 5.84624L16.8816 13.5959L26.3081 27.1012C26.9728 28.0378 27.4713 28.8611 27.8036 29.5711C28.136 30.266 28.3021 30.9458 28.3021 31.6105C28.3021 32.3507 28.0076 32.9927 27.4184 33.5366C26.8444 34.0804 26.0588 34.3523 25.0618 34.3523C24.1252 34.3523 23.3623 34.1559 22.7731 33.7632C22.184 33.3553 21.6855 32.819 21.2776 32.1543C20.8697 31.4896 20.5072 30.8854 20.1899 30.3415L12.2363 18.1052L6.72997 23.385V30.2509C6.72997 31.6407 6.41273 32.6755 5.77826 33.3553C5.14378 34.02 4.32803 34.3523 3.331 34.3523C2.75695 34.3523 2.20556 34.2012 1.67683 33.8991C1.1481 33.597 0.740221 33.1891 0.453197 32.6755C0.241705 32.2525 0.113299 31.7615 0.0679795 31.2026C0.0226598 30.6437 0 29.8355 0 28.778V4.07877C0 2.71918 0.294578 1.69949 0.883734 1.01969C1.488 0.339898 2.30375 0 3.331 0C4.34314 0 5.15889 0.339898 5.77826 1.01969C6.41273 1.68438 6.72997 2.70407 6.72997 4.07877Z" fill="#396F87"/>
</svg>
