<svg width="338" height="69" viewBox="0 0 338 69" fill="none" xmlns="http://www.w3.org/2000/svg">
<path d="M308.021 44.6004V61.104C308.021 63.7106 307.43 65.6656 306.248 66.9689C305.066 68.2722 303.505 68.9238 301.565 68.9238C299.686 68.9238 298.155 68.2722 296.973 66.9689C295.821 65.6656 295.245 63.7106 295.245 61.104V41.327C295.245 38.2051 295.139 35.7803 294.927 34.0527C294.715 32.3251 294.139 30.9157 293.199 29.8245C292.26 28.7031 290.775 28.1423 288.744 28.1423C284.682 28.1423 282 29.5366 280.697 32.3251C279.424 35.1135 278.787 39.1144 278.787 44.3276V61.104C278.787 63.6803 278.196 65.6353 277.014 66.9689C275.862 68.2722 274.332 68.9238 272.422 68.9238C270.543 68.9238 268.997 68.2722 267.785 66.9689C266.603 65.6353 266.012 63.6803 266.012 61.104V25.5963C266.012 23.2625 266.542 21.4894 267.603 20.277C268.694 19.0646 270.119 18.4584 271.877 18.4584C273.574 18.4584 274.983 19.0343 276.105 20.1861C277.257 21.3075 277.832 22.8685 277.832 24.8689V26.051C279.984 23.4747 282.288 21.5803 284.743 20.3679C287.198 19.1556 289.926 18.5494 292.927 18.5494C296.048 18.5494 298.731 19.1707 300.974 20.4134C303.217 21.6561 305.066 23.5353 306.52 26.051C308.612 23.505 310.855 21.6258 313.249 20.4134C315.644 19.1707 318.296 18.5494 321.205 18.5494C324.6 18.5494 327.525 19.2162 329.98 20.5498C332.435 21.8834 334.269 23.7929 335.481 26.2783C336.542 28.5212 337.072 32.0523 337.072 36.8715V61.104C337.072 63.7106 336.481 65.6656 335.299 66.9689C334.117 68.2722 332.556 68.9238 330.617 68.9238C328.737 68.9238 327.192 68.2722 325.979 66.9689C324.797 65.6353 324.206 63.6803 324.206 61.104V40.2358C324.206 37.5686 324.085 35.4318 323.842 33.8254C323.63 32.219 323.024 30.8702 322.024 29.7791C321.024 28.6879 319.508 28.1423 317.477 28.1423C315.841 28.1423 314.28 28.6273 312.795 29.5972C311.34 30.5671 310.203 31.8704 309.385 33.5071C308.475 35.5985 308.021 39.2963 308.021 44.6004Z" fill="#396F87"/>
<path d="M242.734 61.9224C239.733 64.2562 236.824 66.0142 234.005 67.1962C231.216 68.348 228.079 68.9239 224.594 68.9239C221.411 68.9239 218.608 68.3025 216.183 67.0599C213.788 65.7869 211.94 64.0744 210.636 61.9224C209.333 59.7704 208.681 57.4366 208.681 54.9209C208.681 51.5262 209.757 48.6316 211.909 46.2372C214.061 43.8427 217.016 42.2363 220.775 41.418C221.563 41.2361 223.518 40.8269 226.64 40.1904C229.762 39.5539 232.429 38.9781 234.641 38.4628C236.884 37.9172 239.309 37.2656 241.916 36.5078C241.764 33.2344 241.097 30.8399 239.915 29.3245C238.764 27.7787 236.354 27.0058 232.686 27.0058C229.534 27.0058 227.155 27.4453 225.549 28.3242C223.972 29.2032 222.609 30.5217 221.457 32.2796C220.335 34.0376 219.532 35.2045 219.047 35.7804C218.592 36.326 217.592 36.5988 216.046 36.5988C214.652 36.5988 213.44 36.1593 212.409 35.2803C211.409 34.371 210.909 33.2192 210.909 31.825C210.909 29.6427 211.682 27.521 213.228 25.46C214.773 23.3989 217.183 21.7016 220.457 20.368C223.73 19.0344 227.807 18.3676 232.686 18.3676C238.142 18.3676 242.431 19.0192 245.553 20.3225C248.675 21.5955 250.872 23.6263 252.145 26.4147C253.448 29.2032 254.1 32.901 254.1 37.508C254.1 40.4178 254.085 42.888 254.055 44.9187C254.055 46.9495 254.04 49.2075 254.009 51.6929C254.009 54.0267 254.388 56.4667 255.146 59.0127C255.934 61.5284 256.328 63.1499 256.328 63.8773C256.328 65.1504 255.722 66.3173 254.509 67.3781C253.327 68.4086 251.978 68.9239 250.463 68.9239C249.19 68.9239 247.932 68.3329 246.689 67.1508C245.447 65.9384 244.128 64.1956 242.734 61.9224ZM241.916 43.964C240.097 44.6308 237.445 45.3431 233.959 46.1008C230.504 46.8282 228.11 47.3738 226.776 47.7375C225.442 48.0709 224.169 48.7529 222.957 49.7834C221.745 50.7836 221.139 52.193 221.139 54.0116C221.139 55.8908 221.851 57.4972 223.275 58.8308C224.7 60.1341 226.564 60.7858 228.867 60.7858C231.323 60.7858 233.581 60.2554 235.642 59.1945C237.733 58.1034 239.264 56.7091 240.234 55.0118C241.355 53.1326 241.916 50.041 241.916 45.7371V43.964Z" fill="#396F87"/>
<path d="M192.45 63.2409L181.494 45.237L174.765 51.602V61.4678C174.765 63.8622 174.128 65.7111 172.855 67.0144C171.613 68.2874 170.173 68.9239 168.536 68.9239C166.627 68.9239 165.126 68.2874 164.035 67.0144C162.944 65.7414 162.399 63.8622 162.399 61.3769V8.45637C162.399 5.6982 162.929 3.60684 163.99 2.18229C165.051 0.727429 166.566 0 168.536 0C170.446 0 171.961 0.651655 173.083 1.95497C174.204 3.25828 174.765 5.18293 174.765 7.72894V37.8263L188.722 23.1868C190.45 21.3682 191.769 20.1255 192.678 19.4587C193.587 18.7919 194.693 18.4585 195.997 18.4585C197.542 18.4585 198.831 18.9586 199.861 19.9588C200.892 20.9287 201.407 22.1563 201.407 23.6415C201.407 25.46 199.725 27.8848 196.36 30.9157L189.768 36.9625L202.498 56.9668C203.438 58.452 204.105 59.5886 204.499 60.3766C204.923 61.1344 205.135 61.8618 205.135 62.5589C205.135 64.529 204.589 66.09 203.498 67.2417C202.437 68.3632 201.028 68.9239 199.27 68.9239C197.755 68.9239 196.588 68.5147 195.769 67.6964C194.951 66.878 193.845 65.3929 192.45 63.2409Z" fill="#396F87"/>
<path d="M145.169 52.0581L130.355 66.8721L115.541 52.0581C112.612 49.1282 110.616 45.3953 109.808 41.3314C109 37.2675 109.414 33.0552 111 29.2271C112.586 25.399 115.271 22.1271 118.716 19.8251C122.161 17.5231 126.212 16.2944 130.355 16.2944C134.499 16.2944 138.549 17.5231 141.995 19.8251C145.44 22.1271 148.125 25.399 149.711 29.2271C151.296 33.0552 151.711 37.2675 150.903 41.3314C150.094 45.3953 148.099 49.1282 145.169 52.0581ZM130.355 46.5553C132.825 46.5553 135.193 45.5743 136.939 43.8281C138.685 42.0819 139.666 39.7136 139.666 37.2442C139.666 34.7747 138.685 32.4064 136.939 30.6602C135.193 28.914 132.825 27.9331 130.355 27.9331C127.886 27.9331 125.518 28.914 123.771 30.6602C122.025 32.4064 121.044 34.7747 121.044 37.2442C121.044 39.7136 122.025 42.0819 123.771 43.8281C125.518 45.5743 127.886 46.5553 130.355 46.5553ZM130.355 41.8997C129.121 41.8997 127.936 41.4092 127.063 40.5361C126.19 39.663 125.7 38.4789 125.7 37.2442C125.7 36.0094 126.19 34.8253 127.063 33.9522C127.936 33.0791 129.121 32.5886 130.355 32.5886C131.59 32.5886 132.774 33.0791 133.647 33.9522C134.52 34.8253 135.011 36.0094 135.011 37.2442C135.011 38.4789 134.52 39.663 133.647 40.5361C132.774 41.4092 131.59 41.8997 130.355 41.8997Z" fill="#F89422"/>
<path d="M80.2901 51.0109V61.3768C80.2901 63.8925 79.699 65.7868 78.517 67.0598C77.3349 68.3025 75.8346 68.9238 74.016 68.9238C72.2277 68.9238 70.7577 68.2873 69.6059 67.0143C68.4542 65.7413 67.8783 63.8621 67.8783 61.3768V26.8239C67.8783 21.2469 69.8939 18.4584 73.9251 18.4584C75.9861 18.4584 77.4713 19.1101 78.3806 20.4134C79.2898 21.7167 79.79 23.6414 79.8809 26.1874C81.366 23.6414 82.8815 21.7167 84.4273 20.4134C86.0034 19.1101 88.0948 18.4584 90.7014 18.4584C93.308 18.4584 95.8389 19.1101 98.2939 20.4134C100.749 21.7167 101.977 23.4444 101.977 25.5963C101.977 27.1118 101.446 28.3697 100.385 29.3699C99.3548 30.3398 98.2333 30.8247 97.0209 30.8247C96.5663 30.8247 95.46 30.5519 93.702 30.0064C91.9744 29.4305 90.4438 29.1426 89.1101 29.1426C87.2916 29.1426 85.8064 29.6275 84.6546 30.5974C83.5029 31.537 82.6087 32.9464 81.9722 34.8256C81.3357 36.7048 80.8963 38.9477 80.6538 41.5543C80.4113 44.1306 80.2901 47.2828 80.2901 51.0109Z" fill="#396F87"/>
<path d="M13.5029 8.18358V31.5522L40.0086 3.90993C41.2816 2.57631 42.3576 1.59125 43.2366 0.954751C44.1459 0.31825 45.3431 0 46.8283 0C48.7681 0 50.329 0.575882 51.5111 1.72764C52.7235 2.8491 53.3297 4.22818 53.3297 5.8649C53.3297 7.83502 52.3143 9.78999 50.2836 11.7298L33.8709 27.2786L52.7841 54.3753C54.1177 56.2545 55.1179 57.9064 55.7847 59.331C56.4516 60.7252 56.785 62.0891 56.785 63.4227C56.785 64.9079 56.1939 66.1961 55.0118 67.2872C53.8601 68.3784 52.284 68.9239 50.2836 68.9239C48.4044 68.9239 46.8737 68.5299 45.6917 67.7419C44.5096 66.9235 43.5094 65.8475 42.691 64.5139C41.8727 63.1803 41.1452 61.9679 40.5087 60.8767L24.5507 36.326L13.5029 46.9192V60.6949C13.5029 63.4834 12.8664 65.5596 11.5934 66.9235C10.3204 68.2571 8.68369 68.9239 6.68326 68.9239C5.53149 68.9239 4.4252 68.6208 3.36436 68.0146C2.30353 67.4084 1.48517 66.5901 0.909287 65.5596C0.484953 64.7109 0.227322 63.7258 0.136393 62.6044C0.0454643 61.4829 0 59.8614 0 57.7397V8.18358C0 5.45572 0.591036 3.40982 1.77311 2.04589C2.98549 0.681965 4.62221 0 6.68326 0C8.714 0 10.3507 0.681965 11.5934 2.04589C12.8664 3.37952 13.5029 5.42541 13.5029 8.18358Z" fill="#396F87"/>
</svg>
